<svg xmlns="http://www.w3.org/2000/svg" viewBox="0 0 32 32">
  <defs>
    <linearGradient id="g" x1="0%" y1="0%" x2="100%" y2="100%">
      <stop offset="0%" stop-color="#7c5cff"/>
      <stop offset="100%" stop-color="#c084fc"/>
    </linearGradient>
  </defs>
  <rect width="32" height="32" rx="8" fill="#0a0a0f"/>
  <path d="M16 6C10.5 6 6 10.5 6 16s4.5 10 10 10 10-4.5 10-10S21.5 6 16 6zm0 3c3.9 0 7 3.1 7 7 0 1.4-.4 2.7-1.1 3.8L12.2 10.1C13.3 9.4 14.6 9 16 9zm-7 7c0-1.4.4-2.7 1.1-3.8l9.7 9.7c-1.1.7-2.4 1.1-3.8 1.1-3.9 0-7-3.1-7-7z" fill="url(#g)" opacity="0.9"/>
  <path d="M16 11a5 5 0 0 1 5 5" stroke="url(#g)" stroke-width="1.5" fill="none" stroke-linecap="round" opacity="0.5"/>
</svg>
